<?xml version="1.0" encoding="UTF-8"?>
<!DOCTYPE svg PUBLIC "-//W3C//DTD SVG 1.1//EN" "http://www.w3.org/Graphics/SVG/1.1/DTD/svg11.dtd">
<svg version="1.1" xmlns="http://www.w3.org/2000/svg" xmlns:xlink="http://www.w3.org/1999/xlink" x="0" y="0" width="230" height="57" viewBox="0, 0, 230, 57">
  <g id="Layer_1">
    <path d="M40.721,0 L40.721,57 L20.748,47.26 L-0,57 L-0,0 L40.721,0 z M20.378,13.166 C16.67,13.498 15.675,19.699 15.173,22.429 C15.008,24.648 15.051,23.591 15.025,25.6 C13.658,26.183 12.419,27.014 11.418,28.127 C9.994,29.548 9.636,31.77 9.979,33.671 C10.322,35.57 11.484,38.053 11.483,38.053 L12.856,38.053 C13.068,35.912 13.522,33.534 15.643,32.508 C15.973,33.829 16.307,35.177 17.008,36.361 L23.81,36.361 C24.442,35.11 24.882,33.76 25.218,32.404 C27.197,33.485 27.702,35.775 27.862,37.874 L29.236,37.874 C29.236,37.874 30.398,35.392 30.741,33.49 C31.085,31.589 30.726,29.368 29.303,27.947 C28.305,26.996 27.302,26.003 25.992,25.49 C25.898,23.355 25.995,24.384 25.721,22.402 C24.386,14.644 22.368,13.166 20.421,13.168 L20.378,13.166 z" fill="#D33658"/>
    <path d="M61.716,38.988 C62.544,39.132 63.443,39.168 64.126,39.168 C64.845,39.168 65.745,39.132 66.572,38.988 L66.572,21.08 C66.572,20.109 66.536,19.426 66.536,18.419 L66.572,18.419 C67.075,18.419 68.226,18.455 68.73,18.455 L70.42,18.455 C72.182,18.455 73.01,17.88 73.01,16.298 C73.01,15.686 72.902,14.931 72.758,14.428 L55.566,14.428 C55.422,15.147 55.386,15.902 55.386,16.441 C55.386,17.017 55.422,17.736 55.566,18.455 L59.558,18.455 C60.062,18.455 61.213,18.419 61.716,18.419 L61.752,18.419 C61.752,19.426 61.716,20.109 61.716,21.08 z" fill="#223344"/>
    <path d="M86.101,31.581 C86.389,30.466 86.497,29.675 86.497,28.272 C86.497,23.957 83.871,20.649 79.16,20.649 C73.801,20.649 71.391,24.748 71.391,30.142 C71.391,34.961 73.082,39.492 79.124,39.492 C81.641,39.492 84.231,38.737 86.029,37.442 C85.885,36.507 85.418,35.32 84.698,34.601 C83.188,35.284 81.569,35.824 79.843,35.824 C77.11,35.824 76.318,34.026 76.175,31.581 z M79.16,24.029 C81.282,24.029 82.109,25.755 82.109,27.841 L82.109,28.272 L76.139,28.272 C76.283,25.539 77.218,24.029 79.16,24.029 z" fill="#223344"/>
    <path d="M104.983,36.831 C104.228,36.255 103.976,35.356 103.976,34.17 L103.976,26.798 C103.976,22.483 101.135,20.721 97.826,20.721 C95.452,20.721 92.179,21.404 89.949,22.339 C90.057,23.526 90.489,24.928 91.172,25.683 C93.043,25.036 94.985,24.425 96.639,24.425 C98.401,24.425 99.301,25.288 99.301,27.157 L99.301,28.128 C98.222,28.021 97.107,28.021 96.279,28.021 C92.503,28.021 89.266,29.89 89.266,34.098 C89.266,36.687 91.028,39.492 94.661,39.492 C96.999,39.492 98.725,38.449 99.984,37.226 C100.631,38.305 101.71,39.096 103.401,39.276 C104.048,38.809 104.767,37.694 104.983,36.831 z M95.92,35.932 C94.625,35.932 93.906,34.997 93.906,33.81 C93.906,32.156 94.841,31.113 96.711,31.113 C97.43,31.113 98.401,31.149 99.301,31.221 L99.301,34.349 C98.258,35.392 96.999,35.932 95.92,35.932 z" fill="#223344"/>
    <path d="M117.535,28.56 C118.111,28.704 118.65,28.74 119.441,28.74 C120.88,28.74 121.779,27.913 121.779,26.33 C121.779,23.31 119.226,20.649 115.018,20.649 C111.133,20.649 107.213,23.31 107.213,30.142 C107.213,35.5 109.695,39.492 114.874,39.492 C117.463,39.492 119.981,38.413 121.599,36.795 C121.384,35.824 120.52,34.565 119.765,34.098 C118.578,34.961 117.104,35.752 115.593,35.752 C113.291,35.752 112.032,34.206 112.032,30.142 C112.032,26.079 112.932,24.173 114.91,24.173 C117.14,24.173 117.571,26.007 117.535,28.56 z" fill="#223344"/>
    <path d="M140.086,26.978 C140.086,23.454 138.503,20.829 135.194,20.829 C133.144,20.829 131.382,21.763 129.943,23.022 L129.943,15.435 C129.943,13.349 129.296,12.522 127.426,12.522 L125.592,12.522 L125.376,12.773 L125.376,38.988 C126.059,39.096 126.85,39.168 127.642,39.168 C128.469,39.168 129.296,39.096 129.943,38.988 L129.943,26.762 C131.058,25.611 132.461,25.036 133.504,25.036 C134.979,25.036 135.374,25.935 135.374,27.949 L135.374,36.327 C135.374,38.233 136.022,39.24 137.892,39.24 C139.043,39.24 140.158,38.809 140.841,38.233 C140.266,37.37 140.086,36.147 140.086,34.817 z" fill="#223344"/>
    <path d="M145.66,14.392 L145.409,14.607 L145.409,38.809 L145.66,39.024 C148.538,39.096 151.235,39.168 154.076,39.168 C159.795,39.168 162.852,36.543 162.852,32.012 C162.852,29.027 160.838,26.51 158.392,25.755 C160.334,24.964 161.701,22.986 161.701,20.757 C161.701,16.477 158.716,14.248 153.537,14.248 C151.091,14.248 148.43,14.32 145.66,14.392 z M153.717,27.877 C157.062,27.877 157.961,30.106 157.961,31.796 C157.961,33.45 157.241,35.68 153.861,35.68 C152.782,35.68 151.487,35.68 150.192,35.716 L150.192,27.877 z M150.192,17.736 C151.199,17.772 152.566,17.772 153.357,17.772 C156.234,17.772 156.918,19.462 156.918,21.008 C156.918,22.591 156.234,24.317 153.321,24.317 L150.192,24.317 z" fill="#223344"/>
    <path d="M181.77,30.07 C181.77,27.014 181.123,24.568 179.216,22.662 C177.778,21.296 175.908,20.649 173.714,20.649 C171.556,20.649 169.685,21.296 168.247,22.662 C166.341,24.568 165.693,27.014 165.693,30.07 C165.693,33.127 166.341,35.536 168.247,37.442 C169.685,38.844 171.556,39.492 173.714,39.492 C175.908,39.492 177.778,38.844 179.216,37.442 C181.123,35.536 181.77,33.127 181.77,30.07 z M170.513,30.07 C170.513,26.906 171.088,24.173 173.75,24.173 C176.375,24.173 176.951,26.906 176.951,30.07 C176.951,33.199 176.375,35.932 173.75,35.932 C171.088,35.932 170.513,33.199 170.513,30.07 z" fill="#223344"/>
    <path d="M200.508,30.07 C200.508,27.014 199.861,24.568 197.955,22.662 C196.516,21.296 194.646,20.649 192.452,20.649 C190.294,20.649 188.424,21.296 186.985,22.662 C185.079,24.568 184.431,27.014 184.431,30.07 C184.431,33.127 185.079,35.536 186.985,37.442 C188.424,38.844 190.294,39.492 192.452,39.492 C194.646,39.492 196.516,38.844 197.955,37.442 C199.861,35.536 200.508,33.127 200.508,30.07 z M189.251,30.07 C189.251,26.906 189.826,24.173 192.488,24.173 C195.113,24.173 195.689,26.906 195.689,30.07 C195.689,33.199 195.113,35.932 192.488,35.932 C189.826,35.932 189.251,33.199 189.251,30.07 z" fill="#223344"/>
    <path d="M202.738,37.73 C204.356,38.665 206.838,39.492 209.571,39.492 C213.779,39.492 216.657,37.334 216.657,33.882 C216.657,30.969 214.679,29.279 211.981,28.272 L209.787,27.481 C208.564,27.014 207.989,26.51 207.989,25.719 C207.989,24.784 208.744,24.101 210.003,24.101 C211.765,24.101 213.564,24.748 214.93,25.359 C215.686,24.748 216.297,23.166 216.261,22.051 C214.715,21.296 212.017,20.649 210.003,20.649 C206.047,20.649 203.313,22.806 203.313,26.258 C203.313,29.099 205.328,30.61 207.845,31.545 L209.859,32.3 C211.154,32.767 211.801,33.45 211.801,34.314 C211.765,35.32 210.83,36.04 209.14,36.04 C207.593,36.04 205.687,35.32 204.141,34.493 C203.421,35.213 202.774,36.687 202.738,37.73 z" fill="#223344"/>
    <path d="M229.784,21.116 L225.432,21.188 L225.432,15.902 L225.181,15.686 L223.382,15.686 C221.476,15.686 220.829,16.477 220.829,18.563 L220.829,21.152 L218.095,21.116 C217.951,21.692 217.916,22.231 217.916,22.77 C217.916,23.382 217.951,23.921 218.095,24.496 L220.829,24.46 L220.829,34.781 C220.829,37.766 222.267,39.168 225.145,39.168 C226.547,39.168 228.238,39.024 229.461,38.844 C229.568,38.557 229.568,38.161 229.568,37.802 C229.568,37.046 229.425,36.183 229.209,35.536 L226.979,35.536 C225.864,35.536 225.432,34.925 225.432,33.882 L225.432,24.425 L229.784,24.496 C229.928,23.921 230,23.382 230,22.77 C230,22.231 229.928,21.692 229.784,21.116 z" fill="#223344"/>
  </g>
</svg>
