<?xml version="1.0" encoding="UTF-8"?>
<!DOCTYPE svg PUBLIC "-//W3C//DTD SVG 1.1//EN" "http://www.w3.org/Graphics/SVG/1.1/DTD/svg11.dtd">
<svg version="1.1" xmlns="http://www.w3.org/2000/svg" xmlns:xlink="http://www.w3.org/1999/xlink" x="0" y="0" width="432" height="512" viewBox="0, 0, 432, 512">
  <g id="Layer_1">
    <path d="M215.142,0 C216.961,0.025 216.306,-0.022 217.112,0.042 C257.194,-0.01 298.719,30.388 326.194,190.016 C329.08,208.628 329.751,211.366 331.57,233.989 C332.095,240.515 332.135,247.07 332.417,253.611 C359.103,263.387 385.622,285 400.965,301.667 C429.003,332.125 436.596,379.032 429.511,418.132 C422.446,457.247 398.297,512 398.297,512 L371.105,512 C368.421,474.98 355.762,411.892 316.23,395.456 C308.646,423.319 300.045,451.368 286.868,477.198 L146.852,477.198 C133.332,452.664 124.153,425.38 118.522,397.98 C75.876,413.28 64.634,473.412 61.425,512 L33.171,512 C33.171,512 9.255,460.941 2.195,421.846 C-4.871,382.745 5.134,335.757 32.084,304.333 C44.091,290.333 75.718,264.445 105.433,255.262 C105.678,233.652 107.178,212.081 109.106,190.564 C118.087,137.615 128.38,80.876 160.678,36.345 C173.632,18.485 192.209,1.763 215.142,0 z" fill="#D33558"/>
  </g>
</svg>
