<?xml version="1.0" encoding="UTF-8"?>
<!DOCTYPE svg PUBLIC "-//W3C//DTD SVG 1.1//EN" "http://www.w3.org/Graphics/SVG/1.1/DTD/svg11.dtd">
<svg version="1.1" xmlns="http://www.w3.org/2000/svg" xmlns:xlink="http://www.w3.org/1999/xlink" x="0" y="0" width="576" height="600" viewBox="0, 0, 576, 600">
  <g id="Layer_1">
    <path d="M442.469,0.552 L442.469,433.065 L290.943,359.161 L133.531,433.065 L133.531,0.552 L442.469,0.552 z M288.133,100.62 C258.798,105.334 252.663,147.684 248.649,170.907 C247.402,187.674 247.721,179.719 247.529,194.767 C236.539,198.075 228.242,206.433 220.157,214.138 C209.355,224.92 206.637,241.781 209.243,256.21 C211.842,270.622 220.655,289.459 220.655,289.459 L231.068,289.459 C232.645,271.922 235.811,256.326 252.213,247.382 C254.643,257.352 257.186,267.736 262.568,276.618 L314.174,276.618 C318.917,267.072 322.238,256.901 324.857,246.592 C340.192,254.385 343.379,272.523 344.912,288.099 L355.338,288.099 C355.338,288.099 364.152,269.266 366.754,254.837 C369.369,240.413 366.647,223.556 355.848,212.774 C348.726,205.17 340.364,198.666 330.75,194.568 C330.014,177.934 330.769,185.883 328.669,170.703 C318.542,111.833 303.231,100.62 288.462,100.637 L288.133,100.62 z" fill="#C2465D"/>
    <path d="M20.881,597.787 C23.609,598.262 26.575,598.38 28.83,598.38 C31.202,598.38 34.168,598.262 36.897,597.787 L36.897,538.704 C36.897,535.501 36.779,533.247 36.779,529.925 L36.897,529.925 C38.558,529.925 42.355,530.043 44.016,530.043 L49.592,530.043 C55.405,530.043 58.134,528.145 58.134,522.925 C58.134,520.908 57.778,518.416 57.303,516.755 L0.593,516.755 C0.119,519.128 0,521.62 0,523.399 C0,525.298 0.119,527.67 0.593,530.043 L13.762,530.043 C15.423,530.043 19.22,529.925 20.881,529.925 L20.999,529.925 C20.999,533.247 20.881,535.501 20.881,538.704 z" fill="#223344"/>
    <path d="M101.319,573.347 C102.268,569.669 102.624,567.059 102.624,562.432 C102.624,548.195 93.963,537.28 78.421,537.28 C60.744,537.28 52.795,550.805 52.795,568.602 C52.795,584.499 58.371,599.448 78.303,599.448 C86.608,599.448 95.15,596.957 101.082,592.686 C100.607,589.601 99.065,585.686 96.692,583.313 C91.709,585.567 86.37,587.347 80.676,587.347 C71.659,587.347 69.049,581.415 68.574,573.347 z M78.421,548.433 C85.421,548.433 88.15,554.127 88.15,561.009 L88.15,562.432 L68.456,562.432 C68.93,553.416 72.015,548.433 78.421,548.433 z" fill="#223344"/>
    <path d="M163.605,590.669 C161.114,588.77 160.283,585.804 160.283,581.889 L160.283,557.568 C160.283,543.331 150.911,537.518 139.996,537.518 C132.166,537.518 121.369,539.772 114.014,542.856 C114.37,546.772 115.793,551.398 118.047,553.89 C124.217,551.754 130.623,549.738 136.081,549.738 C141.894,549.738 144.86,552.585 144.86,558.754 L144.86,561.958 C141.301,561.602 137.623,561.602 134.894,561.602 C122.437,561.602 111.759,567.771 111.759,581.652 C111.759,590.194 117.573,599.448 129.556,599.448 C137.267,599.448 142.962,596.007 147.114,591.974 C149.25,595.533 152.809,598.143 158.385,598.736 C160.521,597.194 162.894,593.516 163.605,590.669 z M133.708,587.703 C129.437,587.703 127.064,584.618 127.064,580.703 C127.064,575.245 130.149,571.805 136.318,571.805 C138.691,571.805 141.894,571.923 144.86,572.161 L144.86,582.482 C141.42,585.923 137.267,587.703 133.708,587.703 z" fill="#223344"/>
    <path d="M205.011,563.381 C206.909,563.856 208.689,563.975 211.299,563.975 C216.045,563.975 219.011,561.246 219.011,556.026 C219.011,546.06 210.587,537.28 196.706,537.28 C183.893,537.28 170.961,546.06 170.961,568.602 C170.961,586.279 179.147,599.448 196.232,599.448 C204.774,599.448 213.078,595.889 218.417,590.55 C217.705,587.347 214.858,583.194 212.367,581.652 C208.452,584.499 203.587,587.109 198.604,587.109 C191.011,587.109 186.859,582.008 186.859,568.602 C186.859,555.195 189.825,548.907 196.35,548.907 C203.706,548.907 205.13,554.958 205.011,563.381 z" fill="#223344"/>
    <path d="M279.399,558.161 C279.399,546.534 274.178,537.873 263.263,537.873 C256.501,537.873 250.688,540.958 245.942,545.111 L245.942,520.077 C245.942,513.196 243.806,510.467 237.637,510.467 L231.586,510.467 L230.875,511.298 L230.875,597.787 C233.129,598.143 235.739,598.38 238.349,598.38 C241.078,598.38 243.806,598.143 245.942,597.787 L245.942,557.449 C249.62,553.653 254.247,551.754 257.687,551.754 C262.552,551.754 263.857,554.72 263.857,561.364 L263.857,589.008 C263.857,595.296 265.992,598.617 272.161,598.617 C275.958,598.617 279.636,597.194 281.89,595.296 C279.992,592.448 279.399,588.414 279.399,584.025 z" fill="#223344"/>
    <path d="M297.788,516.637 L296.957,517.349 L296.957,597.194 L297.788,597.906 C307.279,598.143 316.177,598.38 325.55,598.38 C344.414,598.38 354.498,589.719 354.498,574.771 C354.498,564.924 347.854,556.619 339.787,554.127 C346.193,551.517 350.702,544.992 350.702,537.636 C350.702,523.518 340.854,516.162 323.77,516.162 C315.703,516.162 306.923,516.4 297.788,516.637 z M324.363,561.127 C335.397,561.127 338.363,568.483 338.363,574.059 C338.363,579.516 335.99,586.872 324.838,586.872 C321.279,586.872 317.008,586.872 312.737,586.991 L312.737,561.127 z M312.737,527.67 C316.059,527.789 320.567,527.789 323.177,527.789 C332.668,527.789 334.922,533.365 334.922,538.467 C334.922,543.687 332.668,549.382 323.058,549.382 L312.737,549.382 z" fill="#223344"/>
    <path d="M416.903,568.364 C416.903,558.28 414.767,550.212 408.48,543.924 C403.734,539.416 397.565,537.28 390.328,537.28 C383.209,537.28 377.04,539.416 372.294,543.924 C366.006,550.212 363.871,558.28 363.871,568.364 C363.871,578.449 366.006,586.398 372.294,592.686 C377.04,597.313 383.209,599.448 390.328,599.448 C397.565,599.448 403.734,597.313 408.48,592.686 C414.767,586.398 416.903,578.449 416.903,568.364 z M379.768,568.364 C379.768,557.924 381.667,548.907 390.446,548.907 C399.107,548.907 401.005,557.924 401.005,568.364 C401.005,578.686 399.107,587.703 390.446,587.703 C381.667,587.703 379.768,578.686 379.768,568.364 z" fill="#223344"/>
    <path d="M478.715,568.364 C478.715,558.28 476.579,550.212 470.291,543.924 C465.546,539.416 459.376,537.28 452.139,537.28 C445.021,537.28 438.852,539.416 434.106,543.924 C427.818,550.212 425.682,558.28 425.682,568.364 C425.682,578.449 427.818,586.398 434.106,592.686 C438.852,597.313 445.021,599.448 452.139,599.448 C459.376,599.448 465.546,597.313 470.291,592.686 C476.579,586.398 478.715,578.449 478.715,568.364 z M441.58,568.364 C441.58,557.924 443.479,548.907 452.258,548.907 C460.919,548.907 462.817,557.924 462.817,568.364 C462.817,578.686 460.919,587.703 452.258,587.703 C443.479,587.703 441.58,578.686 441.58,568.364 z" fill="#223344"/>
    <path d="M486.07,593.635 C491.409,596.719 499.595,599.448 508.612,599.448 C522.493,599.448 531.984,592.33 531.984,580.94 C531.984,571.33 525.459,565.754 516.561,562.432 L509.324,559.822 C505.29,558.28 503.392,556.619 503.392,554.009 C503.392,550.924 505.883,548.67 510.036,548.67 C515.849,548.67 521.781,550.805 526.29,552.822 C528.781,550.805 530.798,545.585 530.679,541.907 C525.578,539.416 516.68,537.28 510.036,537.28 C496.985,537.28 487.969,544.399 487.969,555.788 C487.969,565.161 494.613,570.144 502.917,573.229 L509.561,575.72 C513.832,577.262 515.968,579.517 515.968,582.364 C515.849,585.686 512.765,588.059 507.188,588.059 C502.087,588.059 495.799,585.686 490.697,582.957 C488.325,585.33 486.189,590.194 486.07,593.635 z" fill="#223344"/>
    <path d="M575.288,538.823 L560.933,539.06 L560.933,521.62 L560.102,520.908 L554.17,520.908 C547.882,520.908 545.747,523.518 545.747,530.399 L545.747,538.941 L536.73,538.823 C536.255,540.721 536.137,542.501 536.137,544.28 C536.137,546.297 536.255,548.077 536.73,549.975 L545.747,549.856 L545.747,583.906 C545.747,593.753 550.492,598.38 559.984,598.38 C564.61,598.38 570.187,597.906 574.22,597.312 C574.576,596.363 574.576,595.058 574.576,593.872 C574.576,591.38 574.102,588.533 573.39,586.398 L566.034,586.398 C562.356,586.398 560.933,584.381 560.933,580.94 L560.933,549.738 L575.288,549.975 C575.763,548.077 576,546.297 576,544.28 C576,542.501 575.763,540.721 575.288,538.823 z" fill="#223344"/>
  </g>
</svg>
