<?xml version="1.0" encoding="UTF-8"?>
<!DOCTYPE svg PUBLIC "-//W3C//DTD SVG 1.1//EN" "http://www.w3.org/Graphics/SVG/1.1/DTD/svg11.dtd">
<svg version="1.1" xmlns="http://www.w3.org/2000/svg" xmlns:xlink="http://www.w3.org/1999/xlink" x="0" y="0" width="60" height="84" viewBox="0, 0, 60, 84">
  <g id="Background">
    <rect x="0" y="0" width="60" height="84" fill="#000000" fill-opacity="0"/>
  </g>
  <g id="Layer_1">
    <path d="M60.023,-0 L60.023,84.063 L30.573,69.699 L-0.022,84.063 L-0.022,-0 L60.023,-0 z M30.026,19.417 C24.558,19.907 23.092,29.052 22.352,33.078 C22.108,36.35 22.171,34.791 22.134,37.754 C20.117,38.614 18.29,39.841 16.814,41.481 C14.715,43.577 14.186,46.854 14.693,49.658 C15.198,52.459 16.911,56.12 16.911,56.12 L18.935,56.12 C19.247,52.963 19.917,49.456 23.045,47.942 C23.53,49.89 24.023,51.879 25.057,53.625 L35.087,53.625 C36.019,51.78 36.667,49.789 37.164,47.789 C40.081,49.383 40.826,52.761 41.062,55.856 L43.088,55.856 C43.088,55.856 44.801,52.196 45.307,49.391 C45.815,46.588 45.286,43.311 43.187,41.216 C41.715,39.813 40.237,38.349 38.305,37.593 C38.166,34.444 38.309,35.961 37.904,33.039 C35.936,21.597 32.96,19.418 30.09,19.421 L30.026,19.417 z" fill="#D23A5B"/>
  </g>
</svg>
