<?xml version="1.0" encoding="UTF-8"?>
<!DOCTYPE svg PUBLIC "-//W3C//DTD SVG 1.1//EN" "http://www.w3.org/Graphics/SVG/1.1/DTD/svg11.dtd">
<svg version="1.1" xmlns="http://www.w3.org/2000/svg" xmlns:xlink="http://www.w3.org/1999/xlink" x="0" y="0" width="600" height="600" viewBox="0, 0, 1200, 1200">
  <g id="Background">
    <rect x="0" y="0" width="1200" height="1200" fill="#000000" fill-opacity="0"/>
  </g>
  <g id="Layer_1" opacity="0.3">
    <path d="M403.274,122.733 L384.301,77.162 L433.253,83.517 z" fill="#FFFFFF"/>
    <path d="M221.439,1082.151 C221.742,1088.226 217.064,1093.396 210.989,1093.699 C171.706,1095.66 138.019,1067.739 136.176,1030.813 C135.873,1024.739 140.552,1019.568 146.627,1019.265 C152.701,1018.962 157.872,1023.641 158.175,1029.715 C159.389,1054.044 182.351,1073.075 209.891,1071.701 C215.966,1071.398 221.136,1076.076 221.439,1082.151 z" fill="#FFFFFF"/>
    <path d="M742.301,530.529 L778.941,553.484 L782.56,596.568 L745.921,573.613 z" fill="#FFFFFF"/>
    <path d="M75.622,281.06 C89.761,275.377 105.668,276.084 120.541,277.797 C125.544,278.993 133.212,279.646 133.783,286.144 C136.747,303.057 137.644,321.356 132.315,337.834 C120.46,344.224 106.212,343.054 93.187,342.646 C85.248,341.804 73.093,341.804 72.278,331.254 C70.184,314.776 68.308,296.504 75.622,281.06 M89.598,296.803 C88.511,305.477 88.456,314.341 89.571,323.015 C98.517,324.945 107.843,325.027 116.816,323.26 C118.012,314.423 118.012,305.395 116.87,296.558 C107.897,294.791 98.517,294.791 89.598,296.803 z" fill="#FFFFFF" id="Screen_Shot_2020-09-21_at_10"/>
    <path d="M964.775,943.306 C969.528,937.786 979.299,936.398 984.14,942.538 C987.978,950.981 987.83,960.516 989.336,969.519 C997.896,970.936 1006.9,970.789 1015.017,974.095 C1021.984,978.316 1021.335,989.032 1015.549,993.961 C1007.047,996.648 998.044,996.972 989.276,998.153 C988.066,1006.478 988.037,1015.097 985.085,1023.038 C981.631,1032.189 966.369,1030.831 964.008,1021.591 C962,1013.946 961.558,1005.976 960.761,998.153 C950.222,995.821 934.636,999.393 929.441,987.231 C927.168,983.482 930.444,979.143 932.333,975.954 C940.392,969.903 951.373,971.379 960.82,969.608 C961.882,960.811 962.178,951.837 964.775,943.306 z" fill="#FFFFFF" id="#4ec178ff"/>
    <path d="M325.622,711.444 C326.303,707.588 329.096,703 333.385,702.85 C338.306,704.629 341.996,708.552 346.601,710.913 C350.723,708.585 354.115,705.061 358.503,703.166 C362.41,702.119 366.981,705.626 366.217,709.799 C364.737,714.769 360.781,718.46 358.586,723.098 C360.914,727.27 364.488,730.695 366.233,735.183 C366.749,739.173 363.191,744.326 358.753,742.697 C354.214,740.935 350.757,737.294 346.518,734.984 C341.846,737.228 338.089,741.068 333.235,742.98 C329.312,743.295 325.755,738.84 326.47,735.083 C328.531,730.595 332.205,727.104 334.815,722.948 C332.221,718.759 328.348,715.551 325.622,711.444 z" fill="#FFFFFF" id="#fede58ff"/>
    <path d="M1021.602,356.605 C1028.485,357.917 1035.862,358.033 1042.102,361.5 C1046.308,366.021 1044.654,372.399 1044.014,377.83 C1042.467,387.217 1042.409,396.895 1039.724,406.064 C1036.954,412.828 1024.756,410.604 1024.964,403.088 C1024.916,393.404 1027.013,383.871 1028.135,374.283 C1018.43,372.095 1008.308,371.831 998.817,368.679 C992.404,365.981 993.562,354.999 1000.582,353.932 C1007.692,353.585 1014.602,355.687 1021.602,356.605 z" fill="#FFFFFF" id="Screen_Shot_2020-09-21_at_103"/>
    <path d="M1129.993,-41.494 C1196.267,-41.494 1249.993,12.232 1249.993,78.506 C1249.993,144.78 1196.267,198.506 1129.993,198.506 C1063.719,198.506 1009.993,144.78 1009.993,78.506 C1009.993,12.232 1063.719,-41.494 1129.993,-41.494 z M1129.993,-17.494 C1076.973,-17.494 1033.993,25.487 1033.993,78.506 C1033.993,131.525 1076.973,174.506 1129.993,174.506 C1183.012,174.506 1225.993,131.525 1225.993,78.506 C1225.993,25.487 1183.012,-17.494 1129.993,-17.494 z" fill="#FFFFFF"/>
  </g>
</svg>
